# xmcd
#
# Track frame offsets:
#	150
#	14637
#	29237
#	40417
#	51862
#	63257
#	77555
#	87852
#	98515
#	109442
#	125697
#	140512
#
# Disc length: 2050 seconds
#
# Revision: 0
# Processed by: cddbd v1.5.2PL0 Copyright (c) Steve Scherf et al.
# Submitted via: dBpowerAMP V4.0
#
DISCID=a708000c
DTITLE=Lena - Me And Bobby McGee
DYEAR=1992
DGENRE=Country
TTITLE0=Please Mr. Please
TTITLE1=Here's Some Love
TTITLE2=That'll Be The Day
TTITLE3=I Gotta Know
TTITLE4=Blue Eyes Crying In The Rain
TTITLE5=Truck Driving Man
TTITLE6=Country Sunshine
TTITLE7=A Teenager In Love
TTITLE8=Mary Skeffington
TTITLE9=Wild Flowers
TTITLE10=I'm Not Lisa
TTITLE11=Me And Bobby McGee
EXTD=Me And Bobby McGee\nLena\n1992
EXTT0=
EXTT1=
EXTT2=
EXTT3=
EXTT4=
EXTT5=
EXTT6=
EXTT7=
EXTT8=
EXTT9=
EXTT10=
EXTT11=
PLAYORDER=
